<?xml version="1.0" ?><svg viewBox="0 0 64 64" xmlns="http://www.w3.org/2000/svg"><g data-name="19-paypal" id="_19-paypal"><rect height="62" rx="6" style="fill:#005699" width="62" x="1" y="1"/><path d="M57,1H7A6,6,0,0,0,1,7V17A22,22,0,0,0,23,39H41A22,22,0,0,0,63,17V7A6,6,0,0,0,57,1Z" style="fill:#0178bc"/><path d="M57,1H7A6,6,0,0,0,1,7v4A6,6,0,0,1,7,5H57a6,6,0,0,1,6,6V7A6,6,0,0,0,57,1Z" style="fill:#0291d5"/><path d="M57,59H7a6,6,0,0,1-6-6v4a6,6,0,0,0,6,6H57a6,6,0,0,0,6-6V53A6,6,0,0,1,57,59Z" style="fill:#00457a"/><path d="M22.81,44l3.16-14.01L26,30h7a9,9,0,0,0,9-9,9,9,0,0,1,0,18H34L30,52H21Z" style="fill:#add1e9"/><path d="M31.2,21H42a9,9,0,0,1-9,9H26l-.03-.01,1.33-5.87A4,4,0,0,1,31.2,21Z" style="fill:#e6eff6"/><path d="M42,21H31.2a4,4,0,0,0-3.9,3.12l-1.33,5.87L22.81,44H13l6.66-30.43A1.991,1.991,0,0,1,21.61,12H33a9.014,9.014,0,0,1,9,9Z" style="fill:#fdfef9"/><polygon points="13.657 44 13 47 22.131 47 22.81 44 13.657 44" style="fill:#00457a"/><path d="M42,39H34L30,52H21.679L21,55h9l4-13h8a8.949,8.949,0,0,0,8.865-10.5A9,9,0,0,1,42,39Z" style="fill:#00457a"/></g></svg>