<?xml version="1.0" ?><svg data-name="20 Saving" id="_20_Saving" viewBox="0 0 128 128" xmlns="http://www.w3.org/2000/svg"><defs><style>.cls-1{fill:#f9a01b;}.cls-2{fill:#ffcf01;}.cls-3{fill:#a64d2c;}</style></defs><title/><circle class="cls-1" cx="65.3" cy="74.4" r="36"/><circle class="cls-2" cx="65.3" cy="74.4" r="18"/><circle class="cls-2" cx="65.3" cy="74.4" r="13.5"/><path class="cls-1" d="M48.33,14.4a6,6,0,0,0-5.69,7.93,24,24,0,0,0,45.32,0,6,6,0,0,0-5.69-7.93Z"/><path class="cls-2" d="M76.83,40.4H53.76c-3.89,0-3.89-5.84,0-5.84H76.83C80.72,34.56,80.73,40.4,76.83,40.4Z"/><path class="cls-3" d="M46.78,36.87a1,1,0,0,0,1.28-1.54A23,23,0,0,1,41,25.19a5,5,0,0,1,4.75-6.6H79.67a5,5,0,0,1,4.75,6.6,23,23,0,0,1-7.07,10.13,1,1,0,0,0,1.28,1.54,25,25,0,0,0,7.69-11,7,7,0,0,0-6.63-9.26H45.73a7,7,0,0,0-6.63,9.26A25,25,0,0,0,46.78,36.87Z"/><path class="cls-3" d="M78.61,44.19a1,1,0,0,0-.86,1.8,35,35,0,1,1-30.08,0,1,1,0,0,0-.86-1.8,37,37,0,1,0,31.81,0Z"/><path class="cls-3" d="M74.24,36.76H51.17a3.92,3.92,0,0,0,0,7.84H74.24a3.92,3.92,0,1,0,0-7.84Zm0,5.84H51.17a1.92,1.92,0,0,1,0-3.84H74.24A1.92,1.92,0,0,1,74.24,42.6Z"/><path class="cls-3" d="M80.2,77.6A17.5,17.5,0,1,0,62.7,95.1,17.52,17.52,0,0,0,80.2,77.6ZM62.7,93.1A15.5,15.5,0,1,1,78.2,77.6,15.52,15.52,0,0,1,62.7,93.1Z"/><path class="cls-3" d="M42.2,73A21,21,0,0,1,58.13,57.1a1,1,0,0,0-.43-2A23.06,23.06,0,0,0,40.25,72.59,1,1,0,0,0,42.2,73Z"/><path class="cls-3" d="M57.69,100a1,1,0,0,0,.43-2A21,21,0,0,1,42.2,82.17a1,1,0,0,0-2,.43A23.05,23.05,0,0,0,57.69,100Z"/><path class="cls-3" d="M67.71,55.15a1,1,0,1,0-.43,2A21,21,0,0,1,83.2,73a1,1,0,0,0,2-.43A23.06,23.06,0,0,0,67.71,55.15Z"/><path class="cls-3" d="M67.71,100A23.06,23.06,0,0,0,85.15,82.61a1,1,0,0,0-2-.43A21,21,0,0,1,67.28,98.09,1,1,0,0,0,67.71,100Z"/><path class="cls-3" d="M64.13,98.09c-1.34.09-1.18,2.45.1,2.45h.07C65.69,100.45,65.46,98,64.13,98.09Z"/><path class="cls-3" d="M61.2,57.11h.07c1.38-.1,1.15-2.58-.17-2.45S59.91,57.11,61.2,57.11Z"/><path class="cls-3" d="M61.17,100.54c1.32,0,1.41-2.36.1-2.45S59.73,100.54,61.17,100.54Z"/><path class="cls-3" d="M64.31,54.66c-1.34-.12-1.53,2.36-.17,2.45S65.66,54.75,64.31,54.66Z"/><path class="cls-3" d="M42.21,79c-.09-1.38-2.54-1.16-2.45.17S42.3,80.38,42.21,79Z"/><path class="cls-3" d="M83.19,76.17c.1,1.37,2.55,1.17,2.45-.17S83.1,74.82,83.19,76.17Z"/><path class="cls-3" d="M39.76,76c-.1,1.38,2.36,1.53,2.45.17S39.85,74.65,39.76,76Z"/><path class="cls-3" d="M85.65,79.2c.09-1.36-2.36-1.51-2.45-.17S85.55,80.56,85.65,79.2Z"/><path class="cls-3" d="M66.29,73a1,1,0,0,0,2,0,5.59,5.59,0,0,0-4.58-5.49v-.73a1,1,0,0,0-2,0v.73c-6.08,1.11-6.08,9.87,0,11v7.1a3.58,3.58,0,0,1-2.58-3.42,1,1,0,0,0-2,0,5.59,5.59,0,0,0,4.58,5.49v.73a1,1,0,0,0,2,0v-.73c6.08-1.11,6.08-9.87,0-11v-7.1A3.58,3.58,0,0,1,66.29,73ZM61.7,69.59v6.85A3.56,3.56,0,0,1,61.7,69.59Zm2,16V78.76A3.56,3.56,0,0,1,63.7,85.6Z"/></svg>