<?xml version="1.0" ?><svg viewBox="0 0 32 32" xmlns="http://www.w3.org/2000/svg"><defs><style>.cls-1{fill:#d8e1ef;}.cls-2{fill:#0593ff;}</style></defs><title/><g id="Kunci"><path d="M16,26a9.83,9.83,0,0,1-4.46-1.06A1,1,0,0,1,11,23.77l2-7A3.93,3.93,0,0,1,12,14a4,4,0,0,1,8,0,3.93,3.93,0,0,1-1.07,2.72l2,7.05a1,1,0,0,1-.51,1.17A9.83,9.83,0,0,1,16,26Zm-2.81-2.51a8,8,0,0,0,5.62,0l-2-6.81a1,1,0,0,1,.36-1.08A2,2,0,0,0,18,14a2,2,0,0,0-4,0,2,2,0,0,0,.8,1.6,1,1,0,0,1,.36,1.08Z"/><circle class="cls-1" cx="16" cy="16" r="14"/><path class="cls-2" d="M21,23.77l-2-7A3.93,3.93,0,0,0,20,14a4,4,0,0,0-8,0,3.93,3.93,0,0,0,1.07,2.72l-2,7.05a1,1,0,0,0,.51,1.17,9.91,9.91,0,0,0,8.92,0A1,1,0,0,0,21,23.77Z"/><path class="cls-2" d="M22.49,23.23A1,1,0,0,1,21.8,23a1,1,0,0,1,0-1.41,8,8,0,1,0-11.54,0,1,1,0,0,1-1.44,1.38A10,10,0,1,1,26,16a9.92,9.92,0,0,1-2.79,6.92A1,1,0,0,1,22.49,23.23Z"/></g></svg>